<?xml version="1.0" encoding="UTF-8"?>
<svg width="84px" height="44px" viewBox="0 0 84 44" version="1.1" xmlns="http://www.w3.org/2000/svg" xmlns:xlink="http://www.w3.org/1999/xlink">
    <!-- Generator: Sketch 41.2 (35397) - http://www.bohemiancoding.com/sketch -->
    <title>jinmei 2</title>
    <desc>Created with Sketch.</desc>
    <defs></defs>
    <g id="Symbols" stroke="none" stroke-width="1" fill="none" fill-rule="evenodd">
        <g id="jinmei-copy" fill="#FF2D55">
            <g id="jinmei-" transform="translate(20.000000, 12.000000)">
                <g id="Page-1">
                    <polygon id="Fill-1" points="32.2490326 8.81796039 34.8725245 8.81796039 34.8725245 1.35995903 32.2490326 1.35995903"></polygon>
                    <polygon id="Fill-2" points="26.9938539 2.99346688 29.6171181 2.99346688 29.6171181 6.82904615e-05 26.9938539 6.82904615e-05"></polygon>
                    <polygon id="Fill-3" points="37.5033007 2.99346688 40.1267926 2.99346688 40.1267926 6.82904615e-05 37.5033007 6.82904615e-05"></polygon>
                    <polygon id="Fill-4" points="23.7061234 10.021466 43.4161165 10.021466 43.4161165 8.19651719 23.7061234 8.19651719"></polygon>
                    <polygon id="Fill-5" points="23.7061234 13.7842704 43.4161165 13.7842704 43.4161165 11.959094 23.7061234 11.959094"></polygon>
                    <polygon id="Fill-6" points="23.7061234 16.9326884 43.4161165 16.9326884 43.4161165 15.1081949 23.7061234 15.1081949"></polygon>
                    <polygon id="Fill-7" points="23.7061234 6.60443888 43.4161165 6.60443888 43.4161165 4.7794901 23.7061234 4.7794901"></polygon>
                    <polygon id="Fill-8" points="23.7061234 3.18490781 43.4161165 3.18490781 43.4161165 1.35995903 23.7061234 1.35995903"></polygon>
                    <polygon id="Fill-9" points="32.3646711 16.0298885 34.988163 16.0298885 34.988163 10.8605281 32.3646711 10.8605281"></polygon>
                    <polygon id="Fill-10" points="23.7061234 19.7066469 26.3296153 19.7066469 26.3296153 16.2174596 23.7061234 16.2174596"></polygon>
                    <polygon id="Fill-11" points="40.7910312 19.7066469 43.4145231 19.7066469 43.4145231 16.2174596 40.7910312 16.2174596"></polygon>
                    <polygon id="Fill-12" points="10.0585022 19.7066469 12.6819941 19.7066469 12.6819941 6.82904615e-05 10.0585022 6.82904615e-05"></polygon>
                    <polygon id="Fill-13" points="0 19.4842477 2.62326428 19.4842477 2.62326428 12.5577737 0 12.5577737"></polygon>
                    <polygon id="Fill-14" points="0 9.51224676 2.62326428 9.51224676 2.62326428 5.89717733 0 5.89717733"></polygon>
                    <polygon id="Fill-15" points="17.086046 19.7066469 19.7095379 19.7066469 19.7095379 16.0890735 17.086046 16.0890735"></polygon>
                    <polygon id="Fill-16" points="0 3.61650353 2.62326428 3.61650353 2.62326428 6.82904615e-05 0 6.82904615e-05"></polygon>
                    <polygon id="Fill-17" points="0 19.7066469 4.59572046 19.7066469 4.59572046 17.8812429 0 17.8812429"></polygon>
                    <polygon id="Fill-18" points="4.2604143 3.18490781 19.7097655 3.18490781 19.7097655 1.35995903 4.2604143 1.35995903"></polygon>
                    <polygon id="Fill-19" points="4.2604143 6.60443888 19.7097655 6.60443888 19.7097655 4.7794901 4.2604143 4.7794901"></polygon>
                    <polygon id="Fill-20" points="4.2604143 10.0216936 19.7097655 10.0216936 19.7097655 8.19651719 4.2604143 8.19651719"></polygon>
                    <polygon id="Fill-21" points="17.086046 11.3144321 19.7095379 11.3144321 19.7095379 6.82904615e-05 17.086046 6.82904615e-05"></polygon>
                    <polygon id="Fill-22" points="4.2604143 13.7842704 19.7097655 13.7842704 19.7097655 11.959094 4.2604143 11.959094"></polygon>
                    <polygon id="Fill-23" points="4.2604143 16.932916 19.7097655 16.932916 19.7097655 15.1081949 4.2604143 15.1081949"></polygon>
                </g>
            </g>
        </g>
    </g>
</svg>